ffmpeg started on 2016-11-26 at 14:54:14
Report written to "Output/NVENCh264/results/ffmpeg/old_town_cross_2160p50ll5000k.log"
Command line:
Tools/ffmpeg/ffmpeg -benchmark -y -i Input/y4m/old_town_cross_2160p50.y4m -c:v h264_nvenc -preset ll -b:v 5000k -an Output/NVENCh264/encoded/old_town_cross_2160p50ll5000k.mkv
ffmpeg version N-82227-gdb23fde Copyright (c) 2000-2016 the FFmpeg developers
  built with gcc 5.4.0 (Ubuntu 5.4.0-6ubuntu1~16.04.2) 20160609
  configuration: --prefix=/home/jaroslav/ffmpeg_build --pkg-config-flags=--static --extra-cflags=-I/home/jaroslav/ffmpeg_build/include --extra-ldflags=-L/home/jaroslav/ffmpeg_build/lib --bindir=/home/jaroslav/bin --enable-gpl --enable-libass --enable-libfdk-aac --enable-libfreetype --enable-libmp3lame --enable-libopus --enable-libtheora --enable-libvorbis --enable-libvpx --enable-libx264 --enable-libx265 --enable-nvenc --enable-libmfx --enable-libxvid --enable-libgsm --enable-libopencore-amrnb --enable-version3 --enable-nonfree
  libavutil      55. 35.100 / 55. 35.100
  libavcodec     57. 66.101 / 57. 66.101
  libavformat    57. 57.100 / 57. 57.100
  libavdevice    57.  2.100 / 57.  2.100
  libavfilter     6. 66.100 /  6. 66.100
  libswscale      4.  3.100 /  4.  3.100
  libswresample   2.  4.100 /  2.  4.100
  libpostproc    54.  2.100 / 54.  2.100
Input #0, yuv4mpegpipe, from 'Input/y4m/old_town_cross_2160p50.y4m':
  Duration: 00:00:10.00, start: 0.000000, bitrate: 4976642 kb/s
    Stream #0:0: Video: rawvideo (I420 / 0x30323449), yuv420p(progressive), 3840x2160, SAR 1:1 DAR 16:9, 50 fps, 50 tbr, 50 tbn, 50 tbc
[h264_nvenc @ 0x369e120] The variable bitrate rate-control requires the 'qmin' and/or 'qmax' option set.
Output #0, matroska, to 'Output/NVENCh264/encoded/old_town_cross_2160p50ll5000k.mkv':
  Metadata:
    encoder         : Lavf57.57.100
    Stream #0:0: Video: h264 (h264_nvenc) (Main) (H264 / 0x34363248), yuv420p, 3840x2160 [SAR 1:1 DAR 16:9], q=-1--1, 5000 kb/s, 50 fps, 1k tbn, 50 tbc
    Metadata:
      encoder         : Lavc57.66.101 h264_nvenc
    Side data:
      cpb: bitrate max/min/avg: 0/0/5000000 buffer size: 10000000 vbv_delay: -1
Stream mapping:
  Stream #0:0 -> #0:0 (rawvideo (native) -> h264 (h264_nvenc))
Press [q] to stop, [?] for help
frame=   20 fps=0.0 q=0.0 size=       0kB time=00:00:00.00 bitrate=N/A speed=   0x    frame=   30 fps= 27 q=0.0 size=       0kB time=00:00:00.00 bitrate=N/A speed=   0x    frame=   48 fps= 29 q=38.0 size=       1kB time=00:00:00.34 bitrate=  17.5kbits/s speed=0.206x    frame=   66 fps= 30 q=36.0 size=       1kB time=00:00:00.70 bitrate=   8.5kbits/s speed=0.323x    frame=   84 fps= 31 q=36.0 size=       1kB time=00:00:01.06 bitrate=   5.6kbits/s speed=0.396x    frame=   90 fps= 28 q=36.0 size=       1kB time=00:00:01.18 bitrate=   5.1kbits/s speed=0.37x    frame=   95 fps= 26 q=36.0 size=       1kB time=00:00:01.28 bitrate=   4.7kbits/s speed=0.347x    frame=  113 fps= 27 q=36.0 size=       1kB time=00:00:01.64 bitrate=   3.6kbits/s speed=0.39x    frame=  131 fps= 28 q=35.0 size=       1kB time=00:00:02.00 bitrate=   3.0kbits/s speed=0.423x    frame=  149 fps= 28 q=34.0 size=       1kB time=00:00:02.36 bitrate=   2.5kbits/s speed=0.45x    frame=  167 fps= 29 q=35.0 size=       1kB time=00:00:02.72 bitrate=   2.2kbits/s speed=0.473x    frame=  185 fps= 30 q=34.0 size=       1kB time=00:00:03.08 bitrate=   1.9kbits/s speed=0.492x    frame=  203 fps= 30 q=34.0 size=       1kB time=00:00:03.44 bitrate=   1.7kbits/s speed=0.508x    frame=  210 fps= 29 q=34.0 size=       1kB time=00:00:03.58 bitrate=   1.7kbits/s speed=0.49x    frame=  227 fps= 28 q=34.0 size=       1kB time=00:00:03.92 bitrate=   1.5kbits/s speed=0.483x    frame=  245 fps= 28 q=34.0 size=       1kB time=00:00:04.28 bitrate=   1.4kbits/s speed=0.496x    frame=  263 fps= 29 q=34.0 size=       1kB time=00:00:04.64 bitrate=   1.3kbits/s speed=0.508x    frame=  281 fps= 29 q=31.0 size=    2936kB time=00:00:05.00 bitrate=4809.4kbits/s speed=0.518x    frame=  299 fps= 29 q=38.0 size=    2936kB time=00:00:05.36 bitrate=4486.4kbits/s speed=0.527x    frame=  305 fps= 29 q=37.0 size=    2936kB time=00:00:05.48 bitrate=4388.2kbits/s speed=0.513x    frame=  323 fps= 28 q=39.0 size=    2936kB time=00:00:05.84 bitrate=4117.7kbits/s speed=0.506x    frame=  338 fps= 28 q=36.0 size=    2936kB time=00:00:06.14 bitrate=3916.6kbits/s speed=0.506x    frame=  346 fps= 27 q=38.0 size=    2936kB time=00:00:06.30 bitrate=3817.1kbits/s speed=0.49x    frame=  364 fps= 27 q=36.0 size=    2936kB time=00:00:06.66 bitrate=3610.8kbits/s speed=0.498x    frame=  373 fps= 27 q=36.0 size=    2936kB time=00:00:06.84 bitrate=3515.8kbits/s speed=0.49x    frame=  386 fps= 26 q=36.0 size=    2936kB time=00:00:07.10 bitrate=3387.1kbits/s speed=0.477x    frame=  395 fps= 26 q=36.0 size=    2936kB time=00:00:07.28 bitrate=3303.3kbits/s speed=0.47x    frame=  399 fps= 25 q=35.0 size=    2936kB time=00:00:07.36 bitrate=3267.4kbits/s speed=0.457x    frame=  406 fps= 24 q=34.0 size=    2936kB time=00:00:07.50 bitrate=3206.5kbits/s speed=0.45x    frame=  409 fps= 23 q=35.0 size=    2936kB time=00:00:07.56 bitrate=3181.0kbits/s speed=0.425x    frame=  413 fps= 22 q=35.0 size=    2936kB time=00:00:07.64 bitrate=3147.7kbits/s speed=0.41x    frame=  421 fps= 22 q=36.0 size=    2936kB time=00:00:07.80 bitrate=3083.2kbits/s speed=0.406x    frame=  427 fps= 22 q=36.0 size=    2936kB time=00:00:07.92 bitrate=3036.4kbits/s speed=0.402x    frame=  431 fps= 21 q=36.0 size=    2936kB time=00:00:08.00 bitrate=3006.1kbits/s speed=0.39x    frame=  433 fps= 20 q=36.0 size=    2936kB time=00:00:08.04 bitrate=2991.1kbits/s speed=0.378x    frame=  442 fps= 20 q=36.0 size=    2936kB time=00:00:08.22 bitrate=2925.6kbits/s speed=0.376x    frame=  450 fps= 20 q=36.0 size=    2936kB time=00:00:08.38 bitrate=2869.8kbits/s speed=0.373x    frame=  461 fps= 20 q=35.0 size=    2936kB time=00:00:08.60 bitrate=2796.4kbits/s speed=0.371x    frame=  467 fps= 20 q=35.0 size=    2936kB time=00:00:08.72 bitrate=2757.9kbits/s speed=0.368x    frame=  471 fps= 19 q=36.0 size=    2936kB time=00:00:08.80 bitrate=2732.8kbits/s speed=0.364x    frame=  478 fps= 19 q=36.0 size=    2936kB time=00:00:08.94 bitrate=2690.0kbits/s speed=0.361x    frame=  484 fps= 19 q=35.0 size=    2936kB time=00:00:09.06 bitrate=2654.4kbits/s speed=0.359x    frame=  500 fps= 19 q=36.0 Lsize=    5988kB time=00:00:09.98 bitrate=4914.5kbits/s speed=0.387x    
video:5983kB audio:0kB subtitle:0kB other streams:0kB global headers:0kB muxing overhead: 0.071241%
bench: utime=1.248s
bench: maxrss=1398608kB
